<svg xmlns="http://www.w3.org/2000/svg" width="157" height="155" viewBox="0 0 157 155"><g><g><g><path fill="#ee6c4d" d="M6.627 117.136c-.34.173-1.15.39-2.172.39-2.94 0-4.455-1.934-4.455-4.488 0-3.04 2.07-4.718 4.645-4.718.998 0 1.755.211 2.093.396l-.404 1.586a3.89 3.89 0 0 0-1.612-.327c-1.514 0-2.705.963-2.705 2.958 0 1.785 1.016 2.909 2.715 2.909.594 0 1.224-.12 1.617-.289z"/></g><g><path fill="#ee6c4d" d="M19.309 115.924c-1.284 0-2.057-1.313-2.057-2.991 0-1.667.747-3.013 2.07-3.013 1.325 0 2.045 1.373 2.045 2.974 0 1.743-.744 3.03-2.044 3.03zm-.064 1.602c2.488 0 4.165-1.763 4.165-4.694 0-2.462-1.425-4.512-4.038-4.512-2.496 0-4.137 1.996-4.137 4.667 0 2.539 1.486 4.539 3.999 4.539z"/></g><g><path fill="#ee6c4d" d="M39.977 113.964c-.037-1.07-.073-2.354-.073-3.662h-.027a57.3 57.3 0 0 1-.96 3.452l-1.032 3.48h-1.501l-.909-3.44a47.986 47.986 0 0 1-.77-3.492h-.025c-.04 1.206-.092 2.58-.14 3.69l-.164 3.384h-1.778l.543-8.914h2.56l.83 2.992c.28 1.017.532 2.13.722 3.17h.049c.23-1.028.52-2.192.808-3.202l.897-2.96h2.522l.451 8.914h-1.865z"/></g><g><path fill="#ee6c4d" d="M58.765 113.964c-.037-1.07-.073-2.354-.073-3.662h-.026a59.938 59.938 0 0 1-.961 3.452l-1.031 3.48h-1.501l-.912-3.44a49.359 49.359 0 0 1-.769-3.492h-.027a446.63 446.63 0 0 1-.134 3.69l-.166 3.384h-1.778l.54-8.914h2.56l.838 2.992a39.06 39.06 0 0 1 .714 3.17h.052a56.34 56.34 0 0 1 .807-3.202l.896-2.96h2.524l.454 8.914h-1.87z"/></g><g><path fill="#ee6c4d" d="M72.28 108.462v5.123c0 1.543.568 2.323 1.539 2.323 1.009 0 1.567-.737 1.567-2.323v-5.123H77.3v4.999c0 2.752-1.323 4.065-3.543 4.065-2.147 0-3.395-1.256-3.395-4.094v-4.97z"/></g><g><path fill="#ee6c4d" d="M87.082 117.376v-8.914h2.246l1.767 3.265c.504.942.995 2.053 1.388 3.059h.026c-.118-1.18-.155-2.382-.155-3.73v-2.594h1.768v8.914H92.1l-1.82-3.437c-.498-.964-1.067-2.103-1.472-3.147h-.049a71.01 71.01 0 0 1 .084 3.902v2.682z"/></g><g><path fill="#ee6c4d" d="M106.146 113.585l.516-1.896c.128-.513.266-1.187.377-1.714h.042c.125.512.28 1.187.414 1.714l.528 1.896zm2.175 1.502l.648 2.29h2.075l-2.651-8.915h-2.513l-2.6 8.914h1.992l.596-2.289z"/></g><g><path fill="#ee6c4d" d="M121.767 108.462v5.123c0 1.543.566 2.323 1.538 2.323 1.011 0 1.566-.737 1.566-2.325v-5.121h1.918v4.999c0 2.752-1.327 4.065-3.548 4.065-2.144 0-3.392-1.256-3.392-4.094v-4.97z"/></g><g><path fill="#ee6c4d" d="M138.223 110.155h-2.299v-1.693h6.535v1.693h-2.321v7.221h-1.915z"/></g><g><path fill="#ee6c4d" d="M154.46 106.323l-1.096 1.664h1.513l1.576-1.664zm2.192 5.647h-3.125v-1.854h3.321v-1.654h-5.239v8.914h5.414v-1.653h-3.496v-2.118h3.125z"/></g><g><path fill="#ee6c4d" d="M2.31 127.717c.165-.044.458-.08.87-.08 1.667 0 2.704.91 2.704 2.829 0 2.128-1.152 3.135-2.905 3.118-.226 0-.504 0-.67-.035zM.394 135.03c.466.065 1.187.131 2.18.131 1.666 0 3.042-.368 3.936-1.15.808-.727 1.403-1.903 1.403-3.613 0-1.583-.556-2.692-1.439-3.386-.808-.645-1.87-.922-3.496-.922-.961 0-1.88.066-2.584.197z"/></g><g><path fill="#ee6c4d" d="M13.77 125.917l-.276 3.581h-1.137l-.277-3.58z"/></g><g><path fill="#ee6c4d" d="M20.575 131.274l.517-1.893c.128-.514.266-1.19.38-1.714h.034c.128.51.28 1.184.417 1.714l.532 1.893zm2.172 1.508l.656 2.284h2.069l-2.65-8.912h-2.511l-2.598 8.912h1.99l.596-2.284z"/></g><g><path fill="#ee6c4d" d="M36.68 134.658c-.595.21-1.718.502-2.844.502-1.55 0-2.67-.411-3.45-1.19-.771-.78-1.2-1.941-1.2-3.255.013-2.956 2.07-4.655 4.857-4.655 1.097 0 1.94.226 2.359.424l-.405 1.629c-.467-.223-1.035-.385-1.968-.385-1.6 0-2.824.953-2.824 2.885 0 1.85 1.11 2.922 2.687 2.922.428 0 .78-.054.93-.121v-1.878h-1.31v-1.57h3.167z"/></g><g><path fill="#ee6c4d" d="M48.568 134.658c-.591.21-1.717.502-2.837.502-1.556 0-2.676-.411-3.458-1.19-.77-.78-1.2-1.941-1.2-3.255.013-2.956 2.07-4.655 4.859-4.655 1.095 0 1.943.226 2.359.424l-.403 1.629c-.47-.223-1.037-.385-1.972-.385-1.6 0-2.824.953-2.824 2.885 0 1.85 1.109 2.922 2.687 2.922.43 0 .784-.054.935-.121v-1.878h-1.313v-1.57h3.167z"/></g><g><path fill="#ee6c4d" d="M53.367 126.154h1.917v7.222h3.382v1.69h-5.3z"/></g><g><path fill="#ee6c4d" d="M66.293 133.613c-1.286 0-2.06-1.308-2.06-2.99 0-1.664.747-3.013 2.073-3.013 1.325 0 2.041 1.374 2.041 2.973 0 1.747-.744 3.03-2.041 3.03zm-.063 1.6c2.484 0 4.161-1.757 4.161-4.693 0-2.46-1.423-4.509-4.037-4.509-2.497 0-4.136 1.996-4.136 4.664 0 2.54 1.487 4.539 3.999 4.539z"/></g><g><path fill="#ee6c4d" d="M82.129 131.656a105.311 105.311 0 0 1-.073-3.664h-.03a59.03 59.03 0 0 1-.956 3.452l-1.035 3.479h-1.5l-.91-3.442a49.212 49.212 0 0 1-.77-3.49h-.028c-.031 1.201-.087 2.584-.135 3.693l-.163 3.382h-1.776l.542-8.912h2.556l.835 2.99c.276 1.02.53 2.13.719 3.174h.052c.225-1.032.513-2.195.805-3.203l.898-2.96h2.52l.454 8.911h-1.862z"/></g><g><path fill="#ee6c4d" d="M91.758 124.012l-1.094 1.665h1.513l1.577-1.665zm2.194 5.647h-3.126v-1.853h3.322v-1.652h-5.24v8.912h5.411v-1.652h-3.493v-2.116h3.126z"/></g><g><path fill="#ee6c4d" d="M100.821 127.666c.137-.043.409-.07.867-.07.886 0 1.412.423 1.412 1.231 0 .779-.565 1.28-1.52 1.28h-.759zm-1.906 7.4h1.906v-3.505h.566c.8.014 1.163.307 1.403 1.429.238 1.1.453 1.826.583 2.076h1.962c-.16-.345-.414-1.506-.682-2.523-.21-.821-.54-1.401-1.131-1.655v-.038c.734-.275 1.504-1.06 1.504-2.184 0-.814-.28-1.438-.798-1.861-.605-.52-1.492-.716-2.748-.716-1.037 0-1.945.082-2.565.197z"/></g><g><path fill="#ee6c4d" d="M112.034 131.272l.523-1.891c.126-.514.263-1.19.378-1.714h.039c.126.51.277 1.183.418 1.714l.525 1.891zm2.177 1.51l.656 2.284h2.063l-2.647-8.912h-2.513l-2.596 8.912h1.995l.592-2.284z"/></g><g><path fill="#ee6c4d" d="M121.87 127.851h-2.295v-1.697h6.537l.002 1.697h-2.324v7.215h-1.92z"/></g><g><path fill="#ee6c4d" d="M130.434 135.066v-8.911h1.913v8.911z"/></g><g><path fill="#ee6c4d" d="M140.98 133.613c-1.283 0-2.054-1.308-2.054-2.99 0-1.664.743-3.013 2.072-3.013 1.32 0 2.039 1.374 2.039 2.973 0 1.747-.738 3.03-2.039 3.03zm-.06 1.6c2.483 0 4.165-1.757 4.165-4.693 0-2.46-1.428-4.509-4.04-4.509-2.496 0-4.138 1.996-4.138 4.664 0 2.54 1.491 4.539 3.997 4.539z"/></g><g><path fill="#ee6c4d" d="M149.629 135.066v-8.912h2.248l1.763 3.266c.506.939.995 2.048 1.39 3.058h.024a38.852 38.852 0 0 1-.154-3.733v-2.59h1.77v8.911h-2.026l-1.811-3.437c-.505-.963-1.07-2.1-1.475-3.147h-.05c.062 1.19.091 2.447.091 3.902v2.682z"/></g><g><path fill="#ee6c4d" d="M.679 152.244c.63.348 1.637.693 2.657.693 1.104 0 1.684-.477 1.684-1.22 0-.677-.504-1.086-1.777-1.547-1.763-.662-2.925-1.683-2.925-3.318 0-1.894 1.525-3.327 4.01-3.327 1.211 0 2.077.242 2.707.558l-.536 2.012a4.795 4.795 0 0 0-2.202-.527c-1.039 0-1.541.511-1.541 1.07 0 .71.58 1.02 1.966 1.583 1.872.727 2.736 1.75 2.736 3.333 0 1.861-1.351 3.446-4.262 3.446-1.213 0-2.407-.346-3.004-.691z"/></g><g><path fill="#ee6c4d" d="M15.36 153.005c-1.603 0-2.566-1.634-2.566-3.73 0-2.074.932-3.757 2.583-3.757 1.65 0 2.548 1.713 2.548 3.71 0 2.177-.929 3.777-2.548 3.777zM15.283 155c3.1 0 5.191-2.193 5.191-5.854 0-3.067-1.777-5.621-5.034-5.621-3.115 0-5.16 2.489-5.16 5.818 0 3.166 1.853 5.657 4.985 5.657z"/></g><g><path fill="#ee6c4d" d="M26.093 145.616c.175-.048.502-.083.99-.083 1.214 0 1.874.61 1.874 1.637 0 1.117-.787 1.795-2.058 1.795-.351 0-.603-.017-.806-.07zm-2.376 9.204h2.376v-3.993c.22.052.502.068.817.068 1.414 0 2.644-.38 3.462-1.174.628-.609.958-1.533.958-2.636 0-1.088-.437-2.013-1.114-2.559-.71-.607-1.779-.904-3.256-.904-1.465 0-2.502.097-3.243.227z"/></g><g><path fill="#ee6c4d" d="M36.935 143.705v4.285h3.954v-4.285h2.385v11.115h-2.385v-4.636h-3.954v4.636h-2.39v-11.115z"/></g><g><path fill="#ee6c4d" d="M47.058 154.82v-11.115h2.389v11.115z"/></g><g><path fill="#ee6c4d" d="M55.997 150.085l.644-2.358c.157-.642.33-1.484.47-2.144h.05c.156.643.345 1.485.518 2.144l.66 2.358zm2.704 1.878l.818 2.857h2.58l-3.303-11.115h-3.13l-3.24 11.115h2.483l.738-2.857z"/></g><g><path fill="#ee6c4d" d="M72.252 150.085l.644-2.358c.158-.642.333-1.484.474-2.144h.045c.16.643.348 1.485.52 2.144l.662 2.358zm2.707 1.878l.816 2.857h2.583l-3.306-11.115H71.92l-3.24 11.115h2.486l.74-2.857z"/></g><g><path fill="#ee6c4d" d="M81.443 154.82v-11.115h2.8l2.204 4.072c.626 1.17 1.241 2.557 1.732 3.81h.03c-.141-1.467-.195-2.969-.195-4.65v-3.232h2.21v11.115h-2.52l-2.266-4.291c-.63-1.203-1.336-2.621-1.84-3.923h-.062c.075 1.485.11 3.053.11 4.866v3.348z"/></g><g><path fill="#ee6c4d" d="M96.029 145.814h-2.864v-2.109h8.151v2.109h-2.894v9.006H96.03z"/></g><g><path fill="#ee6c4d" d="M104.276 154.82v-11.115h2.39v11.115z"/></g><g><path fill="#ee6c4d" d="M112.793 145.616c.17-.048.503-.083.99-.083 1.21 0 1.873.61 1.873 1.637 0 1.117-.789 1.795-2.067 1.795-.342 0-.592-.017-.796-.07zm-2.38 9.204h2.38v-3.993c.22.052.503.067.816.067 1.415 0 2.645-.378 3.461-1.173.628-.609.963-1.533.963-2.636 0-1.088-.446-2.013-1.12-2.559-.711-.608-1.782-.904-3.259-.904-1.462 0-2.5.097-3.24.227z"/></g><g><path fill="#ee6c4d" d="M125.822 153.005c-1.604 0-2.563-1.634-2.563-3.73 0-2.074.926-3.757 2.58-3.757 1.65 0 2.544 1.713 2.544 3.707 0 2.18-.927 3.78-2.545 3.78zm-.079 1.995c3.1 0 5.193-2.193 5.193-5.854 0-3.067-1.782-5.621-5.036-5.621-3.115 0-5.161 2.489-5.161 5.818 0 3.166 1.857 5.657 4.99 5.657z"/></g><g><path fill="#ee6c4d" d="M134.196 143.705h2.39v9.002h4.217v2.113h-6.607z"/></g><g><path fill="#ee6c4d" d="M143.91 154.82v-11.115h2.389v11.115z"/></g><g><path fill="#ee6c4d" d="M150.127 152.244c.626.348 1.63.693 2.66.693 1.096 0 1.675-.477 1.675-1.22 0-.677-.5-1.086-1.777-1.547-1.761-.662-2.922-1.683-2.922-3.318 0-1.894 1.526-3.327 4.01-3.327 1.212 0 2.078.242 2.705.558l-.533 2.012a4.785 4.785 0 0 0-2.206-.527c-1.034 0-1.54.511-1.54 1.07 0 .708.587 1.02 1.97 1.583 1.869.727 2.738 1.75 2.738 3.333 0 1.861-1.357 3.446-4.267 3.446-1.21 0-2.405-.346-3.005-.691z"/></g><g><path fill="#ee6c4d" d="M16.74 40.133c-.058-.259-.137-.464-.243-.567-.103-.1-.21-.307-.313-.565a9.196 9.196 0 0 1-.287-.859 18.995 18.995 0 0 1-.31-1.204l.084-.27c-.19.438-.388.863-.581 1.258-.194.396-.383.761-.553 1.083-.17.32-.324.596-.446.811-.122.214-.214.367-.261.443-.081.13-.097.5-.074.995.025.495.087 1.11.158 1.728.07.617.15 1.239.206 1.74.058.502.094.884.078 1.029-.015.144-.017.554-.005 1.095.013.542.037 1.216.075 1.891.035.676.085 1.352.143 1.9.06.548.128.966.205 1.124.078.157.146.327.207.498.06.173.114.348.162.519.05.17.093.334.134.485.042.151.08.289.12.404l.038.106.045.1.053.09.059.082c-.053-.119-.105-.39-.153-.734-.05-.344-.096-.758-.134-1.163-.04-.407-.076-.801-.1-1.103l-.044-.555c-.096-.967-.04-1.92.101-2.814.142-.896.365-1.728.607-2.457.242-.728.5-1.35.703-1.818.204-.468.355-.783.384-.9a3.63 3.63 0 0 0 .059-.595c.01-.266.01-.58-.009-.893a5.8 5.8 0 0 0-.109-.884"/></g><g><path fill="#ee6c4d" d="M29.678 53.706c-.022.144-.06.278-.109.39a.76.76 0 0 1-.18.27c-.072.062-.142.17-.208.3a7.95 7.95 0 0 0-.195.427c-.062.147-.122.29-.182.404-.059.113-.117.2-.176.23-.054.031-.133.101-.224.19-.092.087-.197.192-.307.293a2.712 2.712 0 0 1-.331.27c-.11.073-.21.12-.298.12-.092-.015-.119-.075-.106-.154a.842.842 0 0 1 .123-.28c.06-.1.13-.196.183-.269.05-.071.086-.12.073-.12a.729.729 0 0 1-.458-.083.947.947 0 0 1-.304-.271.418.418 0 0 1-.049-.253c.007-.1.032-.213.07-.317a1.31 1.31 0 0 1 .132-.278c.05-.077.1-.132.143-.146.044-.014.08-.104.108-.232.029-.128.048-.295.057-.467.009-.17.006-.344-.009-.488-.015-.142-.041-.254-.083-.298-.04-.047-.057-.195-.056-.395.001-.2.02-.45.047-.702.029-.253.065-.508.1-.714.038-.205.076-.366.104-.427.028-.06.033-.26.018-.536a20.047 20.047 0 0 0-.083-.989 40.211 40.211 0 0 0-.126-1.046 19.095 19.095 0 0 0-.107-.714 9.258 9.258 0 0 0-.204-.734c-.104-.335-.233-.731-.37-1.11-.135-.381-.277-.744-.403-1.013-.124-.268-.234-.442-.303-.442-.058.155-.101.436-.132.77-.03.335-.048.721-.06 1.094-.01.372-.016.73-.017 1.002-.002.273.001.46.001.494.417.884.6 2.111.624 3.474.026 1.364-.105 2.864-.313 4.3a38.995 38.995 0 0 1-.772 3.9c-.281 1.1-.559 1.927-.754 2.283-.031.057-.14.209-.284.44a9.282 9.282 0 0 0-.505.936 7.877 7.877 0 0 0-.485 1.344 6.84 6.84 0 0 0-.228 1.674 5.574 5.574 0 0 1-.122 1.12c-.07.326-.167.608-.277.85-.107.242-.23.444-.347.61a3.11 3.11 0 0 1-.332.395c-.047.129-.149.274-.275.428-.127.151-.277.31-.421.47-.144.156-.28.31-.377.453-.098.143-.158.274-.145.382.01.117-.008.54-.045 1.116a81.48 81.48 0 0 1-.387 4.122c-.077.597-.156 1.05-.224 1.21-.068.156-.165.505-.267.974-.102.47-.21 1.063-.3 1.709-.09.647-.163 1.345-.194 2.03-.032.687-.023 1.356.05 1.943.075.588.236 1.062.445 1.449.21.385.467.683.732.923.266.238.54.418.785.568.244.148.459.265.603.38.143.114.381.257.666.413.284.155.613.321.936.474.323.153.639.294.898.398.259.106.46.177.554.19a.64.64 0 0 1 .429.279.48.48 0 0 1 .082.212.287.287 0 0 1-.047.196.385.385 0 0 1-.152.124 1.12 1.12 0 0 1-.194.068c-.066.017-.133.034-.194.057a.403.403 0 0 0-.154.096l-.091.062a.927.927 0 0 1-.274.057 2.01 2.01 0 0 1-.143.006l-.09-.002-.073-.002-.047-.004-.02-.001c-.008 0-.053 0-.115.003a2.4 2.4 0 0 0-.227.02c-.084.012-.17.028-.242.052-.073.024-.13.058-.156.102a1.16 1.16 0 0 1-.292.026l-.115-.015-.108-.021-.105-.024-.107-.022-.102-.013-.093-.004a4.48 4.48 0 0 1-.157.037 1.4 1.4 0 0 1-.137.024l-.127.015a3.227 3.227 0 0 1-.404-.009 3.66 3.66 0 0 1-.296-.042 2.472 2.472 0 0 1-.29-.07 1.66 1.66 0 0 1-.258-.1c-.12-.056-.337-.106-.621-.148-.283-.043-.633-.08-1.014-.115-.38-.033-.792-.062-1.202-.09-.41-.028-.817-.054-1.188-.081-.37-.027-.6-.234-.733-.537-.133-.304-.17-.705-.152-1.117a6.97 6.97 0 0 1 .167-1.192c.078-.355.168-.638.222-.768.057-.129.1-.17.13-.257.03-.086.044-.217.04-.526-.004-.31-.026-.798-.07-1.598-.042-.802-.11-1.915-.2-3.473a105.206 105.206 0 0 1-.145-3.576 54.683 54.683 0 0 1 .002-2.505c-.154.097-.515.4-.97.81-.457.41-1.008.929-1.545 1.46-.538.53-1.06 1.07-1.457 1.531-.394.46-.666.836-.7 1.035-.035.197-.18.544-.393.971-.21.425-.488.928-.79 1.435-.3.51-.62 1.024-.922 1.472-.3.45-.578.832-.79 1.076-.213.247-.32.502-.36.752-.039.248-.008.489.053.703.063.213.158.398.25.54a.94.94 0 0 0 .227.264.696.696 0 0 1 .25.288.516.516 0 0 1 .049.191.383.383 0 0 1-.043.192l-.052.06-.075.04-.092.025-.11.008a1.24 1.24 0 0 1-.406-.07 1.281 1.281 0 0 1-.368-.183 1.935 1.935 0 0 1-.204-.177 2.9 2.9 0 0 1-.178-.207c-.065-.08-.137-.173-.228-.288a14.315 14.315 0 0 0-.35-.42c-.143-.165-.221-.44-.256-.761a5.69 5.69 0 0 1 .006-1.045c.032-.355.086-.698.14-.965.053-.27.109-.464.142-.528a.8.8 0 0 0 .088-.279 1.404 1.404 0 0 0-.022-.488 2.924 2.924 0 0 0-.279-.73 6.29 6.29 0 0 0-.668-.998c-.304-.382-.338-.721-.213-1.02.126-.298.413-.55.747-.758a5.593 5.593 0 0 1 1.035-.483c.318-.116.575-.18.656-.195.081-.015.23-.022.443-.099.213-.075.488-.218.819-.506.33-.287.717-.72 1.154-1.367.436-.65.92-1.518 1.45-2.677.469-1.03.99-1.894 1.518-2.614a12.25 12.25 0 0 1 1.561-1.76c.497-.46.954-.8 1.325-1.043.37-.244.655-.391.806-.464-.003-.115-.006-.239-.013-.37a8.957 8.957 0 0 0-.037-.418 7.987 7.987 0 0 0-.059-.468 13.022 13.022 0 0 0-.09-.52 22.033 22.033 0 0 1-.27-1.903A25.793 25.793 0 0 1 16.606 61a21.941 21.941 0 0 1-.008-1.135c.005-.28.014-.452.014-.481l-.008-.054-.026-.133c-.01-.057-.024-.127-.037-.206l-.052-.27-.12-.041-.1-.04-.077-.034-.05-.03-.052-.03-.058-.022-.06-.012-.066-.003-.098.006-.109.015-.118.023-.132.025a.46.46 0 0 1-.223-.052 1.039 1.039 0 0 1-.182-.12c-.056-.044-.108-.089-.164-.122a.343.343 0 0 0-.174-.055.517.517 0 0 1-.187-.036 1.341 1.341 0 0 1-.167-.079c-.053-.029-.103-.058-.149-.079a.333.333 0 0 0-.13-.037c-.04 0-.121-.06-.218-.162a3.84 3.84 0 0 1-.626-.907 1.457 1.457 0 0 1-.15-.487c-.013-.144-.009-.41-.005-.731.005-.321.01-.698.004-1.057a7.434 7.434 0 0 0-.068-.972c-.043-.265-.111-.445-.217-.472-.106-.028-.203-.202-.29-.457a6.405 6.405 0 0 1-.223-.956 12.75 12.75 0 0 1-.132-1.087 6.38 6.38 0 0 1-.02-.848c.016-.205-.031-.504-.118-.856-.087-.35-.214-.751-.348-1.157-.136-.404-.283-.813-.41-1.178a15.121 15.121 0 0 1-.3-.918c-.049-.177-.084-.493-.107-.888-.023-.396-.036-.87-.041-1.368a73.254 73.254 0 0 1 0-1.493c.005-.48.014-.921.021-1.264l-.003.1-.002.08-.003.052-.002.02v-.108c0-.077.003-.197.005-.373.005-.175.008-.408.015-.708l.026-1.111c.021-1.057.097-1.948.201-2.692.104-.743.235-1.342.371-1.812.134-.471.273-.814.391-1.052.119-.236.217-.367.27-.41a.397.397 0 0 0 .115-.197c.026-.082.04-.174.047-.262.009-.09.01-.172.009-.236l-.005-.116c-.1-.623-.006-1.327.195-2.03.201-.707.509-1.415.836-2.049.327-.633.673-1.191.95-1.599.278-.407.486-.664.54-.691a.62.62 0 0 0 .126-.093.59.59 0 0 0 .084-.119c.027-.048.053-.103.087-.173.036-.07.078-.153.136-.256.065-.119.214-.288.42-.488.204-.2.465-.433.758-.681.294-.25.619-.513.95-.776.334-.265.671-.526.994-.773l.099-.08.09-.087.08-.09.072-.093c.04-.062.076-.13.108-.198a3.25 3.25 0 0 0 .143-.333l.024-.066c.095-.234.105-.459.066-.668a1.838 1.838 0 0 0-.225-.576c-.1-.175-.212-.329-.302-.457-.088-.13-.155-.237-.162-.312a11.306 11.306 0 0 1-.869-1.335c-.334-.604-.667-1.338-.85-2.117-.183-.777-.218-1.598.042-2.373.258-.775.813-1.505 1.805-2.1.017-.01.106-.068.256-.146.15-.08.36-.18.618-.28.26-.098.567-.195.908-.269.343-.071.721-.12 1.122-.116.262.001.534.024.807.076a4.066 4.066 0 0 1 1.658.728c.272.199.54.441.797.736l.039.043a.509.509 0 0 1 .06.123.705.705 0 0 1 .03.215 1.155 1.155 0 0 1-.055.318l-.02.037-.027.031-.04.032-.053.026c-.029.01.008.11.082.269.075.156.183.37.297.606.114.236.231.494.322.74.09.245.152.478.154.666.004.187.052.356.122.506.069.151.162.287.254.41.092.122.185.232.26.335.071.105.123.2.133.292a.33.33 0 0 1-.042.213.338.338 0 0 1-.143.123.68.68 0 0 1-.189.057c-.062.01-.125.014-.174.014-.054-.001-.094.035-.121.09a.67.67 0 0 0-.044.226c-.004.09.002.187.016.284.013.095.033.189.059.267.025.08.024.162.006.243a1 1 0 0 1-.091.238c-.039.078-.085.148-.125.212-.038.064-.074.122-.094.167-.018.047.002.13.036.237.034.104.08.23.11.36a.841.841 0 0 1 .015.39.494.494 0 0 1-.25.32 1.305 1.305 0 0 1-.448.154c-.165.031-.34.041-.514.046-.171.004-.342 0-.497.001a2.513 2.513 0 0 0-.41.03l-.184 1.997.01.54.24.065a.246.246 0 0 1 .085.013c.051.013.127.038.243.077a38.63 38.63 0 0 1 1.261.48c.444.173.817.442 1.126.756.312.312.56.667.753 1.011.193.343.33.675.42.94.087.266.129.467.128.547-.001.076.03.442.075.957.045.516.103 1.18.155 1.858.055.676.102 1.365.125 1.928.023.563.02.998-.026 1.171-.044.17-.071.518-.083.957-.01.437-.003.964.023 1.489.026.525.072 1.05.14 1.478.067.432.156.77.27.926.11.156.212.37.305.617.091.249.177.535.255.829.078.297.15.603.222.899.071.294.139.577.207.823.07.25.126.861.174 1.645.047.784.087 1.743.118 2.69.032.949.058 1.883.077 2.62.02.737.036 1.277.05 1.43.012.155.019.43.027.764.006.334.012.727.021 1.12.01.39.022.78.043 1.107.021.328.048.591.089.73.042.141.065.29.074.443.006.152-.003.305-.026.447m6.487-47.791a6.577 6.577 0 0 0-1.393-2.234 6.337 6.337 0 0 0-2.12-1.466c-.402-.169-.825-.3-1.266-.39l.015.002c.14.03.278.061.415.099l-1.865-.511-1.814-.496-.18-.046a5.66 5.66 0 0 0-.182-.04L27.722.82l-.013-.003-.014-.003-.103-.02a3.2 3.2 0 0 0-.186-.03l-.1-.015-.036-.006-.03-.003-.09-.013c-.085-.01-.173-.018-.26-.026l-.053-.004h-.015L26.79.696a7.704 7.704 0 0 0-.43-.017h-.125l-.063.002-.063.001-.071.005h-.04l-.062.004a4.524 4.524 0 0 0-.129.007l-.1.008-.074.005-.064.007-.067.005-.14.018-.1.012-.036.005-.03.004a8.17 8.17 0 0 0-.312.052L9.248 3.722l-.016.004-.015.002-.016.003-.014.003c-.118.023-.238.05-.355.076a9.83 9.83 0 0 0-.349.091l-.04.012-.054.018a5.125 5.125 0 0 0-.252.075c-.114.038-.229.078-.342.12l-.123.048-.11.046c-.061.025-.125.047-.187.075-.14.06-.278.122-.414.19l-.082.04-.089.046c-.077.041-.156.08-.234.121-.131.074-.266.15-.394.23l-.026.016-.036.022a9.906 9.906 0 0 0-1.116.806 11.01 11.01 0 0 0-.794.713l-.061.056-.015.017a11.26 11.26 0 0 0-.604.665c-.054.064-.102.135-.154.2-.06.075-.118.152-.176.227-.217.29-.424.585-.613.895l-.039.056-.012.021-.037.065c-.12.203-.231.41-.335.619-.036.07-.069.14-.103.21-.083.174-.16.35-.234.53l-.06.132-.023.069a9.866 9.866 0 0 0-.25.721l-.005.014-.006.03a8.823 8.823 0 0 0-.18.716c-.017.074-.029.15-.043.222a8.524 8.524 0 0 0-.087.562 8.983 8.983 0 0 0-.072.992L.353 93.533c-.004.394.019.771.066 1.128.045.356.117.692.209 1.008.094.315.21.609.345.881.138.273.293.522.47.749l.709.915c.339.433.675.867 1.012 1.302l1.18 1.52-.035-.058c.052.068.1.14.155.204.398.468.88.828 1.43 1.07.551.243 1.168.368 1.836.365a6.104 6.104 0 0 0 1.443-.196 7.812 7.812 0 0 0 1.554-.578l17.371-8.449c1.04-.506 2.034-1.222 2.943-2.085a15.762 15.762 0 0 0 2.423-2.963 15.713 15.713 0 0 0 1.654-3.446c.397-1.185.623-2.388.637-3.537l.89-72.604a7.737 7.737 0 0 0-.48-2.843"/></g><g><path fill="#ee6c4d" d="M46.465 33.686a2.13 2.13 0 0 1-.4.633l7.583 6.352a2.71 2.71 0 0 1 1.222-.587 2.517 2.517 0 0 1 .615-.038l.145.014.141.024c.045.008.093.017.137.028l2.841-5.584a3.52 3.52 0 0 1-.912-1.168 3.359 3.359 0 0 1-.332-1.5l.005-.076.01-.072.013-.074.007-.075-11.013.773a1.966 1.966 0 0 1 .09.596 2.127 2.127 0 0 1-.153.754"/></g><g><path fill="#ee6c4d" d="M70.887 1.741l.044.004.045.008c.126.018.25.038.373.062l.033.006.023.006c.112.023.223.052.332.08a7.187 7.187 0 0 0-.966-.178zm-27.052 29.21c.06-.02.118-.039.176-.055.06-.014.118-.027.176-.038.06-.01.12-.018.178-.024a2.058 2.058 0 0 1 1.197.263 2.055 2.055 0 0 1 .733.711l11.338-.797a3.19 3.19 0 0 1 .129-.388 3.19 3.19 0 0 1 .17-.365c.063-.119.132-.231.208-.338.076-.11.157-.213.244-.313l-5.83-3.788a1.802 1.802 0 0 1-.545.353 1.734 1.734 0 0 1-1.329-.01 1.728 1.728 0 0 1-1.04-1.61 1.73 1.73 0 0 1 .519-1.227c.158-.155.346-.282.554-.37a1.737 1.737 0 0 1 1.349.005c.206.09.392.217.546.373.155.159.28.346.365.554a1.783 1.783 0 0 1 .11.895 1.803 1.803 0 0 1-.198.593l5.903 3.838a3.556 3.556 0 0 1 1.585-.749 3.33 3.33 0 0 1 2.076.288c.22.108.427.24.618.393.192.154.366.326.52.513l9.136-5.115a1.743 1.743 0 0 1-.048-.153 1.882 1.882 0 0 1-.068-.493 1.827 1.827 0 0 1 1.122-1.673 1.774 1.774 0 0 1 1.972.396 1.802 1.802 0 0 1 .513 1.29 1.842 1.842 0 0 1-1.12 1.671c-.22.091-.456.14-.706.14a1.788 1.788 0 0 1-1.129-.418 1.822 1.822 0 0 1-.274-.289l-9.078 5.091a3.757 3.757 0 0 1 .354.838c.043.149.075.3.095.457.02.154.03.314.03.476a3.574 3.574 0 0 1-.17 1.034 4.149 4.149 0 0 1-.12.32l6.821 3.052a2.512 2.512 0 0 1 .897-.809 2.532 2.532 0 0 1 2.182-.1 2.535 2.535 0 0 1 1.328 1.355 2.5 2.5 0 0 1 .116 1.551 2.502 2.502 0 0 1-.478.974 2.763 2.763 0 0 1-.374.39l1.653 2.33.407-33.215a7.759 7.759 0 0 0-.48-2.843 6.592 6.592 0 0 0-1.392-2.234 6.321 6.321 0 0 0-3.028-1.771l.073.016-1.865-.511-1.815-.496A7.675 7.675 0 0 0 67.73.82l-.015-.003-.017-.002c-.086-.017-.172-.03-.258-.045l-.125-.02-.039-.007-.031-.003a7.36 7.36 0 0 0-.407-.043h-.033a6.553 6.553 0 0 0-.439-.019c-.081 0-.164.003-.247.005h-.056l-.06.003-.093.005c-.062.004-.126.008-.19.014l-.083.005-.063.007a5.769 5.769 0 0 0-.205.023l-.104.012-.035.005a6.898 6.898 0 0 0-.34.056L49.25 3.722l-.053.013c-.255.049-.509.11-.758.18l-.035.011c-.2.059-.396.13-.591.203-.046.018-.094.03-.139.047l-.109.044c-.229.092-.456.194-.678.305l-.095.048a10.78 10.78 0 0 0-.621.349l-.029.016-.038.022a10.55 10.55 0 0 0-1.113.807c-.275.223-.54.458-.793.71l-.08.074a10.64 10.64 0 0 0-.602.665c-.054.065-.102.134-.154.198-.061.077-.119.155-.178.232-.217.287-.424.583-.612.889l-.051.08-.039.066a10.79 10.79 0 0 0-.671 1.357c-.019.045-.042.088-.06.134l-.024.07c-.094.244-.18.487-.254.733l-.008.036c-.071.235-.13.472-.18.71-.016.075-.028.15-.042.223a8.21 8.21 0 0 0-.087.562c-.01.075-.021.152-.027.227-.025.254-.044.51-.045.766l-.143 15.634v.002l-.012.002z"/></g><g><path fill="#ee6c4d" d="M75.763 76.926l-.083.007-.075.003h-.072a3.394 3.394 0 0 1-3.162-2.114 3.467 3.467 0 0 1 .012-2.649l-9.358-4.142a4.894 4.894 0 0 1-1.655 1.418 4.758 4.758 0 0 1-2.178.535 4.53 4.53 0 0 1-1.857-.384 4.463 4.463 0 0 1-.549-.284l-3.96 7.776a3.574 3.574 0 0 1 1.933 2.225 3.63 3.63 0 0 1-.154 2.452 3.686 3.686 0 0 1-1.936 1.93 3.58 3.58 0 0 1-1.406.291 3.54 3.54 0 0 1-2.541-1.05 3.555 3.555 0 0 1-.567-4.27 4.07 4.07 0 0 1 .327-.486l-5.038-4.138-2.883-2.996-.204 22.482c-.005.394.018.771.064 1.127.047.357.117.693.21 1.008.094.316.209.61.346.88.137.273.294.523.469.749.966 1.247 1.934 2.491 2.9 3.738l-.037-.06c.053.07.103.142.157.207.4.468.883.83 1.433 1.073.551.242 1.169.365 1.837.362a6.15 6.15 0 0 0 .708-.051c.24-.034.487-.08.737-.145a7.929 7.929 0 0 0 1.555-.578L68.1 93.393c1.04-.504 2.036-1.222 2.943-2.084a15.867 15.867 0 0 0 2.425-2.964 15.86 15.86 0 0 0 1.654-3.446c.395-1.185.621-2.388.634-3.537l.056-4.44.05-.004z"/></g><g><path fill="#ee6c4d" d="M43.52 65.935l-2.887-2.775-.063 6.948 2.883 2.974 5.551 4.561a3.724 3.724 0 0 1 1.069-.642c.198-.076.401-.136.613-.177a3.154 3.154 0 0 1 .85-.055c.066.004.131.008.196.017a6.15 6.15 0 0 1 .381.066l4.06-7.969a4.619 4.619 0 0 1-1.217-1.59 4.726 4.726 0 0 1-.438-2.038l.007-.138z"/></g><g><path fill="#ee6c4d" d="M73.867 40.072c-.095.04-.19.071-.29.097a2.343 2.343 0 0 1-.62.085 2.49 2.49 0 0 1-1.778-.748 2.528 2.528 0 0 1-.722-1.798 2.566 2.566 0 0 1 .198-.946l-6.82-3.057a3.545 3.545 0 0 1-1.236 1.179 3.422 3.422 0 0 1-2.156.413 3.51 3.51 0 0 1-.44-.098 3.637 3.637 0 0 1-.418-.153 3.616 3.616 0 0 1-.389-.203l-2.773 5.445a2.607 2.607 0 0 1 1.103.957 2.572 2.572 0 0 1 .413 1.443 2.64 2.64 0 0 1-.79 1.862 2.659 2.659 0 0 1-.84.566 2.61 2.61 0 0 1-2.873-.568 2.626 2.626 0 0 1-.707-2.314 2.502 2.502 0 0 1 .301-.814c.07-.124.15-.242.24-.355l-7.623-6.382a2.205 2.205 0 0 1-.538.252 1.96 1.96 0 0 1-.959.056 3.834 3.834 0 0 1-.171-.04 2.334 2.334 0 0 1-.169-.054l-2.903-1.922-.267 29.449h-.013l2.89 2.758 11.098-.82a4.723 4.723 0 0 1 .332-1.027 4.712 4.712 0 0 1 .541-.915l-8.093-5.203a2.171 2.171 0 0 1-.684.519 2.01 2.01 0 0 1-.86.195 2.003 2.003 0 0 1-1.866-1.244A2.043 2.043 0 0 1 44 55.098a2.067 2.067 0 0 1 1.89-1.249 2.006 2.006 0 0 1 1.86 1.245 2.06 2.06 0 0 1 .079 1.308c-.016.054-.032.11-.052.162l8.215 5.286c.216-.208.451-.395.703-.56.249-.165.515-.308.794-.421a4.64 4.64 0 0 1 1.806-.36 4.678 4.678 0 0 1 1.879.39 4.74 4.74 0 0 1 1.509 1.06l10.815-7.59a2.288 2.288 0 0 1-.024-.137c-.008-.045-.012-.092-.018-.139a3.993 3.993 0 0 1-.011-.144c-.002-.048-.002-.097-.002-.147a2.589 2.589 0 0 1 .769-1.814 2.546 2.546 0 0 1 1.813-.75l.104.01.102-8.341.012.007-2.1-2.972a2.66 2.66 0 0 1-.275.129"/></g><g><path fill="#ee6c4d" d="M75.294 56.277a2.437 2.437 0 0 1-1.1-.64 2.576 2.576 0 0 1-.391-.506l-10.62 7.453c.128.189.24.388.339.597a4.616 4.616 0 0 1 .446 2.058 4.47 4.47 0 0 1-.041.573 4.568 4.568 0 0 1-.273 1.079c-.066.171-.141.338-.225.498l9.304 4.118c.16-.23.345-.44.552-.627a3.514 3.514 0 0 1 1.472-.793c.276-.072.566-.11.863-.111l.069.001.07.003.068.004.072.006.166-13.635.012-.002-.116.011a2.48 2.48 0 0 1-.667-.087"/></g><g><path fill="#ee6c4d" d="M99.25 55.75a11.03 11.03 0 0 0-1.459-1.447 15.928 15.928 0 0 0-1.506-1.1c-.471-.305-.893-.545-1.206-.714a11.766 11.766 0 0 0-.552-.28c-.092.18-.04.615.09 1.174.134.56.349 1.244.586 1.918.235.675.495 1.34.717 1.863.222.525.407.91.495 1.021a9.384 9.384 0 0 0 .782.859c.165.163.343.328.53.487a7.3 7.3 0 0 0 .58.444c.2.132.449.275.715.417.268.14.552.28.822.4.272.123.53.228.74.302.213.076.378.12.467.12l.041.001h.038l.032.002h.03c.047 0 .081-.007.114-.037a.618.618 0 0 0 .109-.185c.042-.098.096-.238.172-.436.078-.2.178-.458.313-.795.16-.402.184-.72.104-1.006-.083-.283-.269-.534-.53-.8-.262-.267-.597-.552-.98-.902a12.93 12.93 0 0 1-1.245-1.305"/></g><g><path fill="#ee6c4d" d="M110.908 1.795l.024.003.026.005c.136.018.271.042.404.067l.023.004.019.005a7.256 7.256 0 0 0-.62-.097zm.77.148l.067.017-.066-.017zm4.499 4.029a6.618 6.618 0 0 0-1.395-2.237 6.342 6.342 0 0 0-3.026-1.772l.068.017c-1.227-.338-2.454-.672-3.68-1.01a7.15 7.15 0 0 0-.414-.097l-.015-.003-.017-.003c-.084-.017-.17-.03-.254-.043-.047-.007-.094-.017-.141-.023l-.027-.006-.028-.003a6.54 6.54 0 0 0-.396-.04l-.026-.002-.047-.003a7.197 7.197 0 0 0-.416-.016c-.08 0-.16.003-.24.005h-.08l-.039.002-.06.004c-.083.004-.167.01-.252.016l-.051.005-.045.004-.231.025-.094.011-.04.007c-.11.016-.222.033-.335.055L89.255 3.76l-.057.014a8.344 8.344 0 0 0-.748.178l-.053.016c-.198.057-.39.129-.582.2-.046.015-.092.027-.137.045l-.11.044c-.23.094-.457.195-.679.305l-.096.05c-.21.108-.417.225-.622.35l-.027.014-.036.02a10.831 10.831 0 0 0-1.118.81c-.276.226-.544.463-.797.716l-.07.064c-.21.214-.413.434-.604.665-.056.064-.103.135-.155.201-.06.076-.12.152-.176.229-.22.29-.43.59-.62.902l-.043.065-.044.08c-.117.199-.227.4-.33.604a11.277 11.277 0 0 0-.338.739c-.018.044-.04.088-.058.133l-.025.071a9.623 9.623 0 0 0-.251.73l-.016.054a9.25 9.25 0 0 0-.173.692l-.045.231a8.98 8.98 0 0 0-.085.553l-.029.23a8.84 8.84 0 0 0-.044.766l-.129 14.183-.074-.013 2.907 1.773.08.014.06.01.042.008.037.006c.2.048.388.1.57.165.18.063.352.14.52.236.167.095.328.21.488.35.16.143.314.31.47.512.155.202.299.368.44.502a2.741 2.741 0 0 0 .849.565c.152.067.311.128.49.194l.114.04.106.03.092.018.086.006a.398.398 0 0 0 .233-.065.55.55 0 0 0 .168-.191c.05-.083.095-.187.14-.308.045-.123.092-.261.146-.42.022-.064.044-.116.066-.16a.458.458 0 0 1 .07-.105l.073-.057.076-.017.08.015.082.04.086.057.089.066.094.062.097.055.1.038.101.015a.812.812 0 0 0 .324-.138c.094-.066.178-.155.274-.261.094-.108.198-.233.328-.378.132-.145.29-.308.492-.489.082-.07.162-.132.24-.184.079-.051.157-.095.234-.128.076-.034.154-.058.228-.075a1.02 1.02 0 0 1 .546.03c.105.036.21.087.312.154.101.067.2.15.298.246.095.097.191.207.284.328.155.201.288.358.401.49.113.129.208.233.285.33.076.095.138.182.185.28.044.096.077.2.096.334.022.136.155.254.349.366.194.114.448.221.71.334.26.114.531.232.756.367.225.135.408.285.492.464a.508.508 0 0 0 .074.114l.09.077.1.042.111.014a.871.871 0 0 0 .354-.089c.119-.054.234-.126.337-.2.104-.073.193-.147.258-.205.067-.058.108-.1.117-.107a6.703 6.703 0 0 0 .637-.46c.158-.13.323-.283.467-.446.143-.166.265-.343.333-.522.072-.179.16-.314.257-.416a1.003 1.003 0 0 1 .535-.292c.065-.01.107-.01.114-.01.015 0 .096.007.214.017l.445.041c.17.018.35.036.517.058.166.022.316.045.425.07.137.001.286-.033.436-.096.15-.062.3-.152.441-.26a2.4 2.4 0 0 0 .39-.374c.113-.136.207-.282.275-.428a.699.699 0 0 1 .287-.338c.123-.074.264-.112.416-.134.15-.022.31-.028.464-.033.156-.006.306-.013.44-.035.134-.022.29-.042.46-.064a16.469 16.469 0 0 1 1.084-.092c.181-.01.353-.015.508-.014.157 0 .275.01.376.036.1.023.184.06.274.11.089.05.183.114.304.195.121.08.272.176.47.29.066.036.131.068.193.095a1.544 1.544 0 0 0 .35.094c.054.008.106.01.155.01a1.112 1.112 0 0 0 .587-.16l.05-.036a8.355 8.355 0 0 1 .538.323c.134.088.277.185.401.284.123.099.23.198.294.286.065.092.137.16.218.216.078.055.169.097.268.138.099.04.21.077.336.12.126.043.264.094.422.162.05.024.096.043.138.058l.108.037.089.02.07.007.112-.02.105-.04a.897.897 0 0 1 .36-.06c.131 0 .247.03.349.079.104.049.194.119.277.202.082.085.156.18.225.286.07.103.135.216.202.326.066.114.116.203.155.285.039.08.065.153.088.233.02.078.036.162.05.264.015.104.027.228.047.385.02.158.048.277.083.372a.913.913 0 0 0 .143.248c.061.072.135.143.227.229.092.087.202.186.333.322a1.942 1.942 0 0 0 .282.238c.047.037.098.07.15.102.05.034.101.065.153.096l.32-26.053a7.794 7.794 0 0 0-.481-2.85"/></g><g><path fill="#ee6c4d" d="M114.95 54.644a5.703 5.703 0 0 1-1.23.137 5.207 5.207 0 0 1-1.44-.202 6.692 6.692 0 0 1-.792-.279 8.504 8.504 0 0 1-.85-.426 9.775 9.775 0 0 0-.678-.363 6.313 6.313 0 0 0-.568-.245 3.223 3.223 0 0 0-.474-.137 1.931 1.931 0 0 0-.395-.044 1.251 1.251 0 0 0-.86.324c-.118.1-.227.217-.338.346-.111.13-.222.271-.344.418-.202.246-.376.59-.533.978-.155.39-.296.827-.432 1.263-.136.438-.27.872-.414 1.263-.144.388-.3.729-.48.974-.183.246-.446.67-.73 1.184a24.573 24.573 0 0 0-.865 1.71c-.27.597-.505 1.19-.645 1.692-.14.5-.185.908-.075 1.131.11.224.147.697.145 1.287-.005.588-.05 1.292-.112 1.976a55.933 55.933 0 0 1-.202 1.854c-.062.51-.113.863-.121.929-.002.088.086.268.22.492.134.22.313.486.494.741a38.334 38.334 0 0 0 .776 1.04c-.03 0-.191.007-.446.015l-1.005.025c-.4.01-.856.02-1.324.027-.469.007-.952.014-1.408.014-.31 0-.605 0-.87-.005-.264-.003-.5-.01-.694-.019a4.08 4.08 0 0 1-.434-.042c-.09-.017-.126-.038-.09-.067.09-.067.164-.2.231-.37.068-.17.13-.38.194-.604.063-.224.13-.461.21-.687.08-.225.171-.44.285-.62.115-.178.172-.391.194-.625a4.312 4.312 0 0 0-.012-.76c-.021-.264-.055-.538-.077-.805a4.367 4.367 0 0 1-.004-.778c.025-.245.125-.589.251-.971.126-.385.277-.807.41-1.206.128-.4.237-.778.274-1.071.036-.294 0-.505-.154-.57-.155-.067-.374-.212-.62-.397-.245-.188-.52-.412-.786-.636-.267-.226-.524-.451-.738-.637-.213-.185-.382-.333-.473-.399a7.357 7.357 0 0 1-.447-.398l-.688-.646a39.032 39.032 0 0 0-.736-.685 8.67 8.67 0 0 0-.597-.504 2.018 2.018 0 0 1-.422-.416 3.545 3.545 0 0 1-.332-.517 6.28 6.28 0 0 1-.249-.512 11.068 11.068 0 0 1-.162-.403c-.068-.173-.152-.59-.245-1.131-.092-.543-.194-1.209-.295-1.876-.101-.67-.201-1.343-.295-1.897-.091-.556-.173-.994-.239-1.195a1.203 1.203 0 0 0-.273-.466 1.096 1.096 0 0 0-.646-.327c-.08-.014-.136-.014-.146-.014l-.573-.111c-.313-.06-.718-.137-1.126-.213-.408-.077-.822-.152-1.148-.21a6.99 6.99 0 0 0-.639-.092c-.067 0-.195.028-.361.074-.165.046-.367.112-.58.185a18.691 18.691 0 0 0-1.21.461l-.075.027-.086.017-.098.01-.106.002c-.097 0-.203-.008-.317-.02a4.802 4.802 0 0 1-.362-.06 7.295 7.295 0 0 1-.391-.093c-.134-.034-.27-.075-.407-.116l-2.897-2.349-.413 45.508c-.004.395.019.773.065 1.13.046.356.118.693.21 1.01.096.313.21.608.347.88.136.272.293.523.47.75.024.03 2.82 3.647 2.902 3.736l-.035-.059c.05.07.103.143.158.209.4.47.884.83 1.437 1.075a4.495 4.495 0 0 0 1.845.362c.228-.002.464-.018.703-.05.24-.031.485-.078.736-.142.25-.063.504-.142.761-.237.26-.096.52-.208.787-.337l17.357-8.386c1.04-.502 2.036-1.218 2.945-2.078.908-.862 1.73-1.87 2.426-2.957a15.816 15.816 0 0 0 1.656-3.445c.395-1.184.623-2.386.636-3.537l.334-27.129.005-.002c-.189.062-.378.12-.57.174a7.89 7.89 0 0 1-.585.145"/></g><g><path fill="#ee6c4d" d="M101.794 56.195a1.893 1.893 0 0 0 .568.333c.126.045.268.074.416.074a.991.991 0 0 0 .404-.082 1.45 1.45 0 0 0 .412-.285c.225-.223.414-.504.575-.807.161-.305.292-.634.401-.955.11-.32.197-.631.268-.903.072-.271.127-.502.174-.658.045-.155-.059-.25-.25-.307-.194-.057-.474-.079-.783-.089-.308-.01-.644-.009-.948-.019-.303-.014-.573-.042-.75-.109l-.023-.008-.023-.004-.021-.004h-.024c-.174 0-.355.18-.514.463a3.77 3.77 0 0 0-.376 1.083c-.082.414-.111.853-.055 1.244.057.39.198.73.453.944.006.007.04.04.096.09"/></g><g><path fill="#ee6c4d" d="M148.498 61.897c-2.645.24-5.404.586-8.206 1.063a85.87 85.87 0 0 0-8.473 1.875c-2.822.782-5.615 1.732-8.308 2.88l-2.887-2.826-.261 28.643c-.003.394.019.771.066 1.128.047.356.116.692.21 1.008.093.315.208.609.343.881.138.271.294.522.472.748l2.9 3.737-.036-.057c.052.068.1.14.157.204.397.468.88.828 1.43 1.07.55.243 1.169.368 1.838.363.229-.001.465-.018.706-.05.241-.033.487-.08.738-.144a7.906 7.906 0 0 0 1.556-.578l17.36-8.437c1.04-.506 2.033-1.224 2.942-2.088a15.84 15.84 0 0 0 2.423-2.964 15.86 15.86 0 0 0 1.656-3.448c.395-1.186.62-2.387.635-3.537l.244-19.919c-2.34.07-4.866.208-7.505.448"/></g><g><path fill="#ee6c4d" d="M141.376 39.29a.673.673 0 0 0-.403-.61.648.648 0 0 0-.723.141.676.676 0 0 0-.197.468l-.024 2.25 1.321.001z"/></g><g><path fill="#ee6c4d" d="M150.77 1.734h.002-.001m.115.013l.045.004.048.009c.123.017.248.038.37.063l.034.005.023.005c.097.021.195.045.291.07a7.177 7.177 0 0 0-.925-.168zm.811.155zm4.472 4.02a6.58 6.58 0 0 0-1.392-2.235 6.316 6.316 0 0 0-3.025-1.77l.068.016c-1.226-.336-2.452-.67-3.678-1.007a6.648 6.648 0 0 0-.413-.098l-.014-.004-.018-.002c-.082-.017-.168-.03-.252-.043L147.3.754l-.023-.003-.028-.004a6.785 6.785 0 0 0-.408-.042h-.015l-.031-.002a6.393 6.393 0 0 0-.676-.012l-.057.001h-.059l-.093.006-.191.013-.083.006-.063.007a4.76 4.76 0 0 0-.204.023l-.104.011-.035.006c-.114.018-.227.035-.343.056L129.26 3.728l-.055.015a8.002 8.002 0 0 0-.753.178l-.049.014a8.335 8.335 0 0 0-.584.2c-.044.017-.09.03-.134.047l-.112.045a9.689 9.689 0 0 0-.677.303l-.095.05a9.886 9.886 0 0 0-.623.348l-.03.018-.035.02a10.47 10.47 0 0 0-1.117.807c-.277.226-.546.464-.8.719l-.068.063c-.21.213-.412.436-.604.666-.055.064-.102.133-.156.2-.06.075-.118.151-.175.229-.22.292-.432.593-.622.906l-.04.06-.05.088a9.975 9.975 0 0 0-.429.813c-.082.172-.159.347-.232.523-.019.046-.042.09-.06.135l-.026.072c-.09.24-.178.482-.252.73l-.015.057c-.066.227-.121.458-.172.689-.016.076-.03.153-.045.23a9.451 9.451 0 0 0-.086.557c-.009.076-.02.151-.027.228-.025.255-.043.51-.045.768l-.312 34.288-.006-.002 2.896 2.344 1.935.406.087-4.416h3.331l.02-2.08-.682-.039a160.408 160.408 0 0 0 2.936-2.137c.208-.157.332-.248.454-.33.119-.082.234-.15.425-.262l.573.374c.314.203.722.469 1.14.736.414.27.841.541 1.189.762.347.22.617.387.726.444l1.355.014c0-.06.01-.403.022-.891.011-.486.023-1.119.033-1.761.01-.642.016-1.296.014-1.823-.004-.528-.015-.933-.042-1.078l1.68-1.356 4.06.007-.125 9.542 3.228.145c.004.047.02.303.049.67.03.368.072.848.126 1.345.054.495.12 1.007.2 1.438.08.431.17.782.272.954.115.195.355.356.653.486.297.13.653.23 1 .305.344.077.681.129.937.163.257.034.436.049.469.052l.134-1.412 4.468-2.302 1.817 1.208.496-40.534a7.72 7.72 0 0 0-.48-2.844"/></g></g></g></svg>